<?xml version="1.0" standalone="no"?>
<!DOCTYPE svg PUBLIC "-//W3C//DTD SVG 20010904//EN"
 "http://www.w3.org/TR/2001/REC-SVG-20010904/DTD/svg10.dtd">
<svg version="1.0" xmlns="http://www.w3.org/2000/svg"
 width="514.000000pt" height="456.000000pt" viewBox="0 0 514.000000 456.000000"
 preserveAspectRatio="xMidYMid meet">
<metadata>
Created by potrace 1.16, written by Peter Selinger 2001-2019
</metadata>
<g transform="translate(0.000000,456.000000) scale(0.100000,-0.100000)"
fill="#000000" stroke="none">
<path d="M381 4164 c-69 -19 -127 -58 -172 -117 -68 -91 -63 21 -67 -1551 -3
-1553 -4 -1495 52 -1584 33 -53 98 -107 155 -129 43 -17 110 -18 1043 -21
1108 -3 1052 -6 1085 62 22 47 9 101 -30 130 -28 21 -33 21 -1034 26 l-1005 5
-24 28 -24 28 0 1430 0 1431 29 29 29 29 749 0 748 0 207 -207 208 -208 1115
-5 1115 -5 27 -28 28 -27 5 -469 c5 -457 6 -470 26 -498 47 -63 149 -50 180
23 13 31 15 106 12 502 -3 463 -3 467 -26 518 -29 64 -102 136 -167 166 l-50
23 -1085 3 -1085 2 -213 213 -212 212 -783 2 c-656 2 -791 0 -836 -13z"/>
<path d="M3688 2454 c-158 -24 -320 -88 -463 -182 -81 -54 -219 -183 -280
-262 -104 -135 -184 -313 -220 -490 -22 -104 -25 -313 -6 -420 87 -489 472
-874 961 -961 107 -19 316 -16 420 6 177 36 355 116 490 220 80 61 208 199
263 282 62 93 119 215 153 328 24 81 28 109 32 284 4 207 -1 256 -45 396 -93
297 -305 543 -588 685 -235 117 -464 154 -717 114z m392 -220 c350 -72 649
-365 729 -716 28 -119 34 -219 21 -328 -51 -416 -355 -748 -760 -832 -135 -28
-328 -21 -455 16 -323 96 -562 335 -661 661 -25 82 -28 105 -28 255 -1 142 2
177 22 249 120 440 529 740 972 715 47 -3 119 -12 160 -20z"/>
<path d="M3804 1796 l-34 -34 0 -181 0 -181 -179 0 c-177 0 -180 0 -209 -25
-40 -34 -49 -75 -25 -122 28 -58 46 -63 241 -63 l172 0 0 -170 c0 -194 7 -222
67 -246 46 -20 86 -10 118 28 25 29 25 32 25 209 l0 179 181 0 181 0 34 34
c24 24 34 43 34 65 0 39 -23 85 -47 97 -10 5 -99 11 -198 14 l-180 5 -2 175
c-3 188 -9 212 -55 236 -47 24 -86 18 -124 -20z"/>
</g>
</svg>
